<?xml version="1.0" standalone="no"?><!DOCTYPE svg PUBLIC "-//W3C//DTD SVG 1.1//EN" "http://www.w3.org/Graphics/SVG/1.1/DTD/svg11.dtd"><svg t="1781378910976" class="icon" viewBox="0 0 1024 1024" version="1.1" xmlns="http://www.w3.org/2000/svg" p-id="7264" xmlns:xlink="http://www.w3.org/1999/xlink" width="200" height="200"><path d="M893.58 709.22l-83.45-48.18 53.06-35.03c9.22-6.09 11.76-18.49 5.67-27.71-6.09-9.22-18.5-11.76-27.71-5.67l-69.75 46.05-108.95-62.9-0.37-127.34 109.32-63.12 69.75 46.05c3.39 2.24 7.22 3.31 11 3.31 6.49 0 12.86-3.16 16.71-8.98 6.09-9.22 3.55-21.62-5.67-27.71l-53.06-35.03 83.45-48.18c9.57-5.52 12.84-17.75 7.32-27.32s-17.75-12.84-27.32-7.32l-83.45 48.18-3.81-63.47c-0.66-11.03-10.16-19.44-21.16-18.77-11.03 0.66-19.43 10.14-18.77 21.16l5.01 83.43-108.93 62.89L532 350.23V224l74.76-37.38c9.88-4.94 13.88-16.95 8.94-26.83-4.94-9.88-16.95-13.88-26.83-8.94L532 179.28V82.92c0-11.05-8.95-20-20-20s-20 8.95-20 20v96.36l-56.87-28.44c-9.88-4.94-21.89-0.93-26.83 8.94-4.94 9.88-0.94 21.89 8.94 26.83L492 224v125.8l-110.09 64-109.31-63.12 5.01-83.43c0.66-11.03-7.74-20.5-18.77-21.16-11.03-0.66-20.5 7.74-21.16 18.77l-3.81 63.47-83.45-48.18c-9.57-5.52-21.8-2.25-27.32 7.32s-2.25 21.8 7.32 27.32l83.45 48.18L160.81 398c-9.22 6.09-11.76 18.49-5.67 27.71 3.85 5.83 10.21 8.98 16.71 8.98 3.78 0 7.61-1.07 11-3.31l69.75-46.05 108.95 62.9 0.37 127.34-109.32 63.11-69.75-46.05c-9.22-6.08-21.62-3.55-27.71 5.67-6.09 9.22-3.55 21.62 5.67 27.71l53.06 35.03-83.45 48.18c-9.57 5.52-12.84 17.75-7.32 27.32 3.7 6.42 10.43 10 17.34 10 3.39 0 6.83-0.86 9.98-2.68l83.45-48.18 3.81 63.47c0.64 10.62 9.45 18.8 19.95 18.8 0.4 0 0.81-0.01 1.22-0.04 11.03-0.66 19.43-10.14 18.77-21.16l-5.01-83.43 108.93-62.89L492 673.77V800l-74.76 37.38c-9.88 4.94-13.88 16.95-8.94 26.83 3.5 7.01 10.57 11.06 17.9 11.06 3.01 0 6.06-0.68 8.93-2.12L492 844.72v96.36c0 11.05 8.95 20 20 20s20-8.95 20-20v-96.36l56.87 28.44c9.88 4.94 21.89 0.93 26.83-8.94 4.94-9.88 0.94-21.89-8.94-26.83L532 800V674.2l110.09-63.99 109.32 63.12-5.01 83.43c-0.66 11.03 7.74 20.5 18.77 21.16 0.41 0.02 0.81 0.04 1.22 0.04 10.5 0 19.31-8.19 19.95-18.8l3.81-63.47 83.45 48.18c3.15 1.82 6.59 2.68 9.98 2.68 6.91 0 13.63-3.59 17.34-10 5.51-9.58 2.23-21.81-7.34-27.33zM401.91 576.01l-0.37-127.36 110.08-63.99 110.46 63.33 0.37 127.36-110.08 63.99-110.46-63.33z" fill="#333333" p-id="7265"></path></svg>